<svg width="37" height="37" viewBox="0 0 37 37" fill="none" xmlns="http://www.w3.org/2000/svg">
<path d="M13.5463 13.9962C13.5463 11.9044 12.1236 11.9044 12.1236 11.9044H6.28076V16.3888H11.7613C12.7079 16.3888 13.5463 16.085 13.5463 13.9962ZM12.1236 19.4884H6.28076V24.858H11.8607C12.6991 24.8346 14.2504 24.5658 14.2504 22.2462C14.2416 19.4709 12.1236 19.4884 12.1236 19.4884ZM27.1017 16.3888C23.9962 16.3888 23.5639 19.4855 23.5639 19.4855H30.1663C30.1663 19.4855 30.2072 16.3888 27.1017 16.3888Z" fill="#85898D"/>
<path d="M31.8697 0.525909H4.26235C3.1319 0.525909 2.04776 0.974977 1.24841 1.77432C0.449067 2.57367 0 3.65781 0 4.78826V32.3927C0 33.5232 0.449067 34.6073 1.24841 35.4067C2.04776 36.206 3.1319 36.6551 4.26235 36.6551H31.8668C32.9973 36.6551 34.0814 36.206 34.8807 35.4067C35.6801 34.6073 36.1292 33.5232 36.1292 32.3927V4.78826C36.1292 3.65832 35.6805 2.57462 34.8818 1.77535C34.0831 0.976093 32.9997 0.526684 31.8697 0.525909ZM22.6994 9.51219H30.9904V11.9895H22.6994V9.51219ZM18.5072 22.495C18.5072 28.6299 12.1239 28.4284 12.1239 28.4284H1.66521V8.32901H12.1239C15.3024 8.32901 17.8119 10.0819 17.8119 13.681C17.8119 17.2802 14.7444 17.5052 14.7444 17.5052C18.7876 17.5052 18.5072 22.495 18.5072 22.495ZM34.017 22.1678H23.6167C23.6167 25.9013 27.1546 25.6735 27.1546 25.6735C30.4937 25.6735 30.3681 23.5116 30.3681 23.5116H33.9001C33.9001 29.2493 27.0231 28.8549 27.0231 28.8549C18.7701 28.8549 19.3018 21.1716 19.3018 21.1716C19.3018 21.1716 19.3018 13.4503 27.0231 13.4503C35.1592 13.4444 34.0199 22.1678 34.0199 22.1678H34.017Z" fill="#85898D"/>
</svg>
