<svg width="49" height="49" viewBox="0 0 49 49" fill="none" xmlns="http://www.w3.org/2000/svg">
<path d="M18.7287 18.3282C18.7287 15.5392 16.8317 15.5392 16.8317 15.5392H9.04126V21.5184H16.3487C17.6108 21.5184 18.7287 21.1132 18.7287 18.3282ZM16.8317 25.6512H9.04126V32.8106H16.4811C17.5991 32.7794 19.6674 32.4211 19.6674 29.3283C19.6557 25.6278 16.8317 25.6512 16.8317 25.6512ZM36.8025 21.5184C32.6619 21.5184 32.0854 25.6473 32.0854 25.6473H40.8886C40.8886 25.6473 40.9431 21.5184 36.8025 21.5184Z" fill="#85898D"/>
<path d="M43.1597 0.367828H6.34988C4.84262 0.367828 3.39709 0.966585 2.3313 2.03238C1.2655 3.09817 0.666748 4.5437 0.666748 6.05096V42.8569C0.666748 44.3642 1.2655 45.8097 2.3313 46.8755C3.39709 47.9413 4.84262 48.54 6.34988 48.54H43.1558C44.6631 48.54 46.1086 47.9413 47.1744 46.8755C48.2402 45.8097 48.839 44.3642 48.839 42.8569V6.05096C48.839 4.54437 48.2407 3.09944 47.1758 2.03375C46.1108 0.968073 44.6663 0.368861 43.1597 0.367828ZM30.9326 12.3495H41.9873V15.6527H30.9326V12.3495ZM25.343 29.6599C25.343 37.8399 16.8319 37.5711 16.8319 37.5711H2.88702V10.772H16.8319C21.0699 10.772 24.4159 13.1091 24.4159 17.908C24.4159 22.7069 20.3259 23.0069 20.3259 23.0069C25.7169 23.0069 25.343 29.6599 25.343 29.6599ZM46.0227 29.2236H32.1557C32.1557 34.2017 36.8728 33.8979 36.8728 33.8979C41.3251 33.8979 41.1576 31.0154 41.1576 31.0154H45.8669C45.8669 38.6656 36.6976 38.1398 36.6976 38.1398C25.6935 38.1398 26.4025 27.8954 26.4025 27.8954C26.4025 27.8954 26.4025 17.6003 36.6976 17.6003C47.5457 17.5925 46.0266 29.2236 46.0266 29.2236H46.0227Z" fill="#85898D"/>
</svg>
