<svg width="39" height="40" viewBox="0 0 39 40" fill="none" xmlns="http://www.w3.org/2000/svg">
<path d="M19.1727 15.1435C18.2386 15.1435 17.3255 15.4205 16.5489 15.9394C15.7722 16.4584 15.1669 17.196 14.8095 18.0589C14.452 18.9219 14.3585 19.8715 14.5407 20.7876C14.7229 21.7037 15.1727 22.5452 15.8332 23.2057C16.4937 23.8662 17.3352 24.316 18.2513 24.4982C19.1675 24.6805 20.1171 24.5869 20.98 24.2295C21.843 23.872 22.5806 23.2667 23.0995 22.4901C23.6185 21.7134 23.8954 20.8003 23.8954 19.8662C23.8954 19.246 23.7733 18.6319 23.536 18.0589C23.2986 17.4859 22.9507 16.9653 22.5122 16.5268C22.0736 16.0882 21.553 15.7403 20.98 15.503C20.407 15.2657 19.7929 15.1435 19.1727 15.1435ZM38.0827 10.4779C38.0727 9.00729 37.8019 7.55012 37.2829 6.17411C36.9007 5.16721 36.3093 4.25282 35.5477 3.49126C34.7861 2.7297 33.8717 2.13829 32.8648 1.75606C31.4888 1.23706 30.0317 0.966259 28.5611 0.95624C26.1045 0.822937 25.3808 0.822937 19.1727 0.822937C12.9646 0.822937 12.2409 0.822937 9.78435 0.95624C8.31375 0.966259 6.85658 1.23706 5.48057 1.75606C4.47367 2.13829 3.55927 2.7297 2.79772 3.49126C2.03616 4.25282 1.44475 5.16721 1.06252 6.17411C0.543518 7.55012 0.272716 9.00729 0.262698 10.4779C0.129394 12.9345 0.129395 13.6581 0.129395 19.8662C0.129395 26.0744 0.129394 26.798 0.262698 29.2546C0.283196 30.7304 0.553631 32.192 1.06252 33.5774C1.44306 34.5797 2.03397 35.4888 2.79546 36.2435C3.55375 37.0096 4.47011 37.601 5.48057 37.9764C6.85658 38.4954 8.31375 38.7662 9.78435 38.7763C12.2409 38.9096 12.9646 38.9096 19.1727 38.9096C25.3808 38.9096 26.1045 38.9096 28.5611 38.7763C30.0317 38.7662 31.4888 38.4954 32.8648 37.9764C33.8753 37.601 34.7917 37.0096 35.55 36.2435C36.3114 35.4888 36.9024 34.5797 37.2829 33.5774C37.8014 32.1947 38.0721 30.7313 38.0827 29.2546C38.216 26.798 38.216 26.0744 38.216 19.8662C38.216 13.6581 38.216 12.9345 38.0827 10.4779ZM33.2457 25.7125C33.1846 26.8877 32.9338 28.0453 32.503 29.1403C32.1333 30.0538 31.5837 30.8836 30.8869 31.5805C30.1901 32.2773 29.3603 32.8269 28.4468 33.1966C27.3414 33.6033 26.1774 33.8284 25 33.8631H13.3455C12.1681 33.8284 11.0041 33.6033 9.89861 33.1966C8.95426 32.8456 8.10145 32.2858 7.40394 31.5588C6.71394 30.8757 6.18106 30.0504 5.84239 29.1403C5.43402 28.0361 5.21511 26.8707 5.19492 25.6935V14.039C5.21511 12.8618 5.43402 11.6964 5.84239 10.5922C6.19332 9.6478 6.75318 8.79499 7.48011 8.09748C8.16631 7.41121 8.99075 6.87889 9.89861 6.53593C11.0041 6.12918 12.1681 5.90409 13.3455 5.86941H25C26.1774 5.90409 27.3414 6.12918 28.4468 6.53593C29.3912 6.88686 30.244 7.44672 30.9415 8.17366C31.6315 8.85683 32.1643 9.68214 32.503 10.5922C32.9098 11.6976 33.1349 12.8616 33.1695 14.039V19.8662C33.1695 23.7892 33.3028 24.1891 33.2457 25.6935V25.7125ZM30.1988 11.5443C29.972 10.9292 29.6146 10.3706 29.151 9.907C28.6874 9.44343 28.1288 9.08595 27.5137 8.85921C26.6691 8.56644 25.7795 8.42463 24.8857 8.44026H13.4597C12.5614 8.44904 11.6717 8.61667 10.8317 8.93539C10.226 9.15183 9.67332 9.49471 9.21036 9.94126C8.7474 10.3878 8.38479 10.9278 8.14663 11.5253C7.87008 12.3734 7.73497 13.2613 7.74672 14.1533V25.5792C7.7656 26.4766 7.9329 27.3646 8.24185 28.2072C8.46858 28.8223 8.82607 29.381 9.28963 29.8445C9.7532 30.3081 10.3118 30.6656 10.927 30.8923C11.7395 31.1911 12.5945 31.3583 13.4597 31.3875H24.8857C25.784 31.3787 26.6737 31.2111 27.5137 30.8923C28.1288 30.6656 28.6874 30.3081 29.151 29.8445C29.6146 29.381 29.972 28.8223 30.1988 28.2072C30.5175 27.3673 30.6851 26.4776 30.6939 25.5792V14.1533C30.6945 13.254 30.5265 12.3627 30.1988 11.5253V11.5443ZM19.1727 27.1408C18.2183 27.1408 17.2733 26.9525 16.3917 26.5867C15.5102 26.2209 14.7095 25.6847 14.0355 25.009C13.3616 24.3332 12.8275 23.5311 12.464 22.6487C12.1005 21.7662 11.9147 20.8207 11.9172 19.8662C11.9172 18.4267 12.3443 17.0195 13.1445 15.8228C13.9447 14.6261 15.082 13.6937 16.4123 13.1436C17.7427 12.5936 19.2063 12.4507 20.618 12.7329C22.0296 13.0151 23.3258 13.7099 24.3424 14.7291C25.359 15.7484 26.0503 17.0464 26.3288 18.4588C26.6074 19.8711 26.4606 21.3344 25.9071 22.6633C25.3536 23.9922 24.4182 25.127 23.2194 25.9241C22.0206 26.7211 20.6123 27.1446 19.1727 27.1408ZM26.79 14.02C26.3691 13.9754 25.9795 13.7766 25.6963 13.4619C25.4132 13.1472 25.2565 12.7389 25.2565 12.3156C25.2565 11.8923 25.4132 11.4839 25.6963 11.1692C25.9795 10.8545 26.3691 10.6558 26.79 10.6112C27.211 10.6558 27.6006 10.8545 27.8837 11.1692C28.1669 11.4839 28.3235 11.8923 28.3235 12.3156C28.3235 12.7389 28.1669 13.1472 27.8837 13.4619C27.6006 13.7766 27.211 13.9754 26.79 14.02Z" fill="#85898D"/>
</svg>
