<svg width="52" height="53" viewBox="0 0 52 53" fill="none" xmlns="http://www.w3.org/2000/svg">
<path d="M26.2299 20.5246C24.9845 20.5246 23.7671 20.8939 22.7315 21.5859C21.696 22.2778 20.8889 23.2612 20.4123 24.4119C19.9357 25.5625 19.811 26.8286 20.054 28.0501C20.2969 29.2716 20.8967 30.3936 21.7773 31.2743C22.658 32.1549 23.78 32.7546 25.0015 32.9976C26.223 33.2406 27.4891 33.1159 28.6397 32.6393C29.7903 32.1627 30.7738 31.3556 31.4657 30.32C32.1576 29.2845 32.5269 28.0671 32.5269 26.8216C32.5269 25.9947 32.3641 25.1759 32.0476 24.4119C31.7312 23.6479 31.2673 22.9537 30.6826 22.369C30.0979 21.7843 29.4037 21.3204 28.6397 21.004C27.8757 20.6875 27.0569 20.5246 26.2299 20.5246ZM51.4433 14.3038C51.4299 12.343 51.0689 10.4001 50.3769 8.56544C49.8672 7.22291 49.0787 6.00371 48.0633 4.9883C47.0479 3.97289 45.8287 3.18435 44.4861 2.6747C42.6515 1.98271 40.7086 1.62164 38.7478 1.60828C35.4723 1.43054 34.5074 1.43054 26.2299 1.43054C17.9525 1.43054 16.9876 1.43054 13.7121 1.60828C11.7513 1.62164 9.80845 1.98271 7.97376 2.6747C6.63123 3.18435 5.41204 3.97289 4.39663 4.9883C3.38122 6.00371 2.59267 7.22291 2.08303 8.56544C1.39103 10.4001 1.02996 12.343 1.0166 14.3038C0.838867 17.5793 0.838867 18.5441 0.838867 26.8216C0.838867 35.0991 0.838867 36.064 1.0166 39.3394C1.04394 41.3071 1.40452 43.256 2.08303 45.1032C2.59042 46.4396 3.3783 47.6517 4.39362 48.658C5.40468 49.6795 6.62648 50.468 7.97376 50.9685C9.80845 51.6605 11.7513 52.0216 13.7121 52.035C16.9876 52.2127 17.9525 52.2127 26.2299 52.2127C34.5074 52.2127 35.4723 52.2127 38.7478 52.035C40.7086 52.0216 42.6515 51.6605 44.4861 50.9685C45.8334 50.468 47.0552 49.6795 48.0663 48.658C49.0816 47.6517 49.8695 46.4396 50.3769 45.1032C51.0682 43.2595 51.4292 41.3084 51.4433 39.3394C51.621 36.064 51.621 35.0991 51.621 26.8216C51.621 18.5441 51.621 17.5793 51.4433 14.3038ZM44.994 34.6167C44.9125 36.1836 44.5781 37.727 44.0037 39.1871C43.5108 40.4051 42.778 41.5115 41.8489 42.4406C40.9198 43.3697 39.8134 44.1025 38.5954 44.5954C37.1215 45.1377 35.5695 45.4378 33.9996 45.4841H18.4603C16.8904 45.4378 15.3384 45.1377 13.8645 44.5954C12.6054 44.1275 11.4683 43.381 10.5383 42.4117C9.61826 41.5008 8.90776 40.4004 8.45619 39.1871C7.9117 37.7147 7.61983 36.1609 7.59289 34.5913V19.052C7.61983 17.4823 7.9117 15.9286 8.45619 14.4562C8.9241 13.197 9.67058 12.06 10.6398 11.1299C11.5548 10.2149 12.654 9.50514 13.8645 9.04787C15.3384 8.50553 16.8904 8.20542 18.4603 8.15918H33.9996C35.5695 8.20542 37.1215 8.50553 38.5954 9.04787C39.8545 9.51578 40.9916 10.2623 41.9216 11.2315C42.8416 12.1424 43.5521 13.2428 44.0037 14.4562C44.546 15.9301 44.8462 17.4821 44.8924 19.052V26.8216C44.8924 32.0522 45.0701 32.5854 44.994 34.5913V34.6167ZM40.9314 15.7257C40.6291 14.9055 40.1524 14.1607 39.5343 13.5426C38.9162 12.9245 38.1714 12.4479 37.3512 12.1456C36.2251 11.7552 35.039 11.5661 33.8473 11.587H18.6126C17.4148 11.5987 16.2286 11.8222 15.1087 12.2471C14.301 12.5357 13.5641 12.9929 12.9468 13.5883C12.3295 14.1837 11.8461 14.9037 11.5285 15.7003C11.1598 16.8312 10.9796 18.015 10.9953 19.2043V34.4389C11.0205 35.6354 11.2435 36.8194 11.6555 37.9429C11.9578 38.7631 12.4344 39.5079 13.0525 40.126C13.6706 40.7441 14.4154 41.2207 15.2356 41.5231C16.319 41.9215 17.459 42.1443 18.6126 42.1832H33.8473C35.0451 42.1715 36.2313 41.948 37.3512 41.5231C38.1714 41.2207 38.9162 40.7441 39.5343 40.126C40.1524 39.5079 40.6291 38.7631 40.9314 37.9429C41.3563 36.823 41.5798 35.6367 41.5915 34.4389V19.2043C41.5923 18.0053 41.3684 16.8168 40.9314 15.7003V15.7257ZM26.2299 36.521C24.9574 36.521 23.6974 36.27 22.522 35.7822C21.3466 35.2945 20.279 34.5796 19.3804 33.6786C18.4818 32.7776 17.7697 31.7081 17.285 30.5315C16.8004 29.3549 16.5526 28.0942 16.5559 26.8216C16.556 24.9022 17.1255 23.0259 18.1924 21.4303C19.2593 19.8347 20.7756 18.5915 22.5494 17.8581C24.3232 17.1248 26.2748 16.9342 28.157 17.3105C30.0391 17.6868 31.7674 18.6131 33.1228 19.9721C34.4783 21.3312 35.4001 23.0618 35.7714 24.945C36.1428 26.8281 35.9471 28.7792 35.2091 30.551C34.4711 32.3229 33.2239 33.836 31.6255 34.8987C30.0271 35.9615 28.1494 36.526 26.2299 36.521ZM36.3864 19.0266C35.8251 18.9671 35.3056 18.7021 34.9281 18.2825C34.5506 17.8629 34.3417 17.3185 34.3417 16.7541C34.3417 16.1896 34.5506 15.6452 34.9281 15.2256C35.3056 14.806 35.8251 14.541 36.3864 14.4816C36.9477 14.541 37.4671 14.806 37.8446 15.2256C38.2221 15.6452 38.431 16.1896 38.431 16.7541C38.431 17.3185 38.2221 17.8629 37.8446 18.2825C37.4671 18.7021 36.9477 18.9671 36.3864 19.0266Z" fill="#85898D"/>
</svg>
